<?xml version="1.0" encoding="UTF-8" standalone="no"?><!DOCTYPE svg PUBLIC "-//W3C//DTD SVG 1.1//EN" "http://www.w3.org/Graphics/SVG/1.1/DTD/svg11.dtd"><svg width="100%" height="100%" viewBox="0 0 2275 834" version="1.1" xmlns="http://www.w3.org/2000/svg" xmlns:xlink="http://www.w3.org/1999/xlink" xml:space="preserve" xmlns:serif="http://www.serif.com/" style="fill-rule:evenodd;clip-rule:evenodd;stroke-miterlimit:2;"><g><path d="M236.192,210.229c-65.117,0 -118.096,-53.033 -118.096,-118.146l-118.096,0c0,130.275 105.962,236.238 236.192,236.238c130.279,-0 236.25,-105.963 236.25,-236.238l-118.1,0c-0,65.113 -52.988,118.146 -118.15,118.146Z" style="fill:#00529c;fill-rule:nonzero;"/><path d="M324.804,92.067c0,48.912 -39.654,88.558 -88.616,88.558c-48.917,0 -88.559,-39.646 -88.559,-88.558c0,-48.967 39.642,-88.613 88.559,-88.613c48.962,0 88.616,39.646 88.616,88.613Z" style="fill:#00529c;fill-rule:nonzero;"/><path d="M727.887,288.475c-6.129,18.721 -29.27,44.583 -80.316,44.583c-36.079,0 -62.625,-10.887 -75.896,-31.65c-7.829,-12.25 -10.212,-21.779 -10.212,-44.583l-0,-164.721l48.666,0l0,155.533c0,14.634 1.363,23.142 4.088,28.246c5.441,10.55 16.675,16.334 32.329,16.334c20.762,-0 34.033,-10.209 36.079,-27.563c0.679,-5.108 0.679,-8.508 0.679,-21.104l0,-151.446l48.325,0l0,159.275c0,22.463 -0.341,26.888 -3.742,37.096Z" style="fill:#58595b;fill-rule:nonzero;"/><path d="M899.088,328.633l-71.817,-123.537l-0,123.537l-48.663,0l0,-236.529l48.663,0l-0,107.883l67.387,-107.883l58.538,0l-75.554,109.588l84.062,126.941l-62.616,0Z" style="fill:#58595b;fill-rule:nonzero;"/><path d="M1165.84,227.896c-5.783,-1.704 -9.529,-2.042 -18.379,-2.042l-29.604,0l0,63.984l30.967,-0c9.866,-0 17.016,-1.363 22.121,-5.446c7.15,-5.446 12.254,-16.338 12.254,-27.567c-0,-13.617 -6.808,-25.867 -17.359,-28.929Zm-1.362,-92.229c-4.079,-1.704 -9.187,-3.063 -19.738,-3.063l-27.566,0l-0,54.113l28.246,-0c11.233,-0 16.337,-1.021 20.42,-3.063c6.467,-3.404 12.255,-14.637 12.255,-24.167c-0,-9.866 -5.109,-20.42 -13.617,-23.82Zm10.55,192.287c-7.487,0.338 -17.358,0.679 -30.288,0.679l-74.533,0l0,-236.529l79.975,0c28.933,0 43.908,4.421 58.2,17.017c13.275,11.571 19.4,25.183 19.4,42.2c0,15.996 -5.446,29.608 -15.996,39.479c-6.804,6.467 -10.891,8.846 -21.783,12.25c29.271,8.512 46.971,28.588 46.971,59.562c-0,32.671 -20.425,63.301 -61.946,65.342Z" style="fill:#58595b;fill-rule:nonzero;"/><path d="M1370.05,331.358c-35.396,0 -61.6,-11.575 -80.658,-36.075c-17.359,-22.12 -25.184,-47.308 -25.184,-82.7c0,-50.029 16.334,-85.425 49.346,-107.55c17.354,-11.566 35.058,-16.675 57.517,-16.675c28.587,0 54.45,9.188 75.208,27.229l-25.179,29.609c-15.317,-12.592 -31.312,-18.379 -49.35,-18.379c-13.95,-0 -25.867,4.083 -34.033,11.912c-15.996,15.317 -20.079,40.842 -20.079,76.234c-0,33.691 5.787,55.474 17.699,67.387c8.846,8.508 21.78,13.275 37.092,13.275c10.554,-0 19.063,-1.704 26.888,-5.787l-0,-53.771l-36.075,-0l-6.125,-38.8l91.55,-0l-0,112.987c-24.167,14.296 -50.713,21.104 -78.617,21.104Z" style="fill:#58595b;fill-rule:nonzero;"/><path d="M592.2,509.683c-11.846,0 -23.846,-3.145 -34.046,-9.295l6.6,-13.196c9.3,5.396 17.546,8.545 28.046,8.545c12.75,0 20.396,-6.15 20.396,-16.5c-0,-7.645 -4.796,-12.445 -15.446,-15.445l-11.1,-3.15c-9.446,-2.7 -16.196,-6.596 -20.096,-12.446c-2.85,-4.2 -4.35,-9.15 -4.35,-15.15c0,-18.296 14.4,-30.742 35.246,-30.742c11.846,0 23.696,3.446 32.846,9.896l-7.8,12.146c-9.596,-5.696 -16.196,-7.946 -24.446,-7.946c-10.2,-0 -16.95,5.546 -16.95,14.096c0,6.45 3.604,9.75 13.8,12.75l12.3,3.6c14.996,4.35 25.496,13.946 25.496,29.546c-0,17.245 -13.946,33.291 -40.496,33.291Z" style="fill:#58595b;fill-rule:nonzero;"/><rect x="648.454" y="403.954" width="17.696" height="103.783" style="fill:#58595b;fill-rule:nonzero;"/><path d="M729.6,509.087c-14.55,0 -25.8,-4.649 -33.9,-14.7c-7.946,-9.749 -11.546,-21.445 -11.546,-37.795c0,-21.296 6.45,-36.142 19.496,-45.892c7.5,-5.696 15.6,-8.1 25.646,-8.1c11.85,0 22.35,3.6 30.896,10.95l-8.696,10.796c-7.2,-5.546 -13.95,-7.946 -21.896,-7.946c-19.2,-0 -26.25,16.796 -26.25,41.092c0,14.55 2.7,24.75 7.65,30.6c4.2,4.946 11.7,7.796 19.646,7.796c5.4,-0 9.9,-1.201 13.8,-3.3l-0,-26.996l-17.7,-0l-2.396,-14.1l37.642,-0l-0,48.896c-9.446,5.699 -20.846,8.699 -32.392,8.699Z" style="fill:#58595b;fill-rule:nonzero;"/><path d="M818.1,509.538c-27.3,-0 -35.846,-14.101 -35.846,-30.746l0,-74.838l17.396,0l0,69.738c0,15.895 5.7,21.146 18.45,21.146c12.596,-0 18.746,-7.35 18.746,-21.146l-0,-69.738l17.246,0l-0,74.688c-0,19.045 -13.196,30.896 -35.992,30.896Z" style="fill:#58595b;fill-rule:nonzero;"/><path d="M913.35,508.187l-16.05,0l-34.946,-104.233l18.896,0l18.75,58.788c2.7,8.25 4.5,15.75 5.4,20.845l0.3,0c1.2,-4.945 2.7,-10.945 6.3,-21.745l19.05,-57.888l17.996,0l-35.696,104.233Z" style="fill:#58595b;fill-rule:nonzero;"/><path d="M1011.61,509.683c-11.85,0 -23.85,-3.145 -34.045,-9.295l6.595,-13.196c9.3,5.396 17.55,8.545 28.046,8.545c12.75,0 20.4,-6.15 20.4,-16.5c0,-7.645 -4.8,-12.445 -15.446,-15.445l-11.1,-3.15c-9.45,-2.7 -16.2,-6.596 -20.1,-12.446c-2.85,-4.2 -4.35,-9.15 -4.35,-15.15c0,-18.296 14.4,-30.742 35.246,-30.742c11.85,0 23.7,3.446 32.846,9.896l-7.8,12.146c-9.6,-5.696 -16.196,-7.946 -24.446,-7.946c-10.196,-0 -16.946,5.546 -16.946,14.096c0,6.45 3.6,9.75 13.796,12.75l12.3,3.6c15,4.35 25.496,13.946 25.496,29.546c-0,17.245 -13.946,33.291 -40.492,33.291Z" style="fill:#58595b;fill-rule:nonzero;"/><path d="M1113.9,507.738l0,-51.592c0,-9.454 -3.3,-12.15 -9.596,-12.15c-5.854,-0 -12.904,3.75 -18.3,9.296l0,54.446l-16.645,-0l-0,-90.288c-0,-6.75 -0.605,-12.6 -1.505,-16.5l16.65,-3.596c1.055,4.35 1.5,10.496 1.5,17.846l0,16.196c0,4.2 -0.3,7.8 -0.3,8.55c7.5,-6.75 15.15,-9.9 23.25,-9.9c8.996,-0 15.896,4.35 18.446,9.3c1.95,3.75 2.55,7.2 2.55,14.846l0,53.546l-16.05,-0Z" style="fill:#58595b;fill-rule:nonzero;"/><path d="M1185,471.892c-16.5,-0 -21.45,4.8 -21.45,14.395c0,7.2 3.9,11.7 10.5,11.7c5.25,0 10.346,-3.149 13.646,-7.949l0.304,-17.996c-0.304,-0 -1.95,-0.15 -3,-0.15Zm17.096,38.995c-4.65,-1.8 -8.546,-5.399 -10.35,-10.199c-6.15,6.895 -12.75,9.295 -20.846,9.295c-17.4,0 -25.196,-9.595 -25.196,-22.791c0,-17.55 13.196,-26.4 37.496,-26.4l5.1,-0l0,-4.046c0,-8.7 -1.5,-13.35 -10.5,-13.35c-9.75,-0 -20.246,6.9 -22.646,8.696l-7.35,-11.846c11.396,-7.2 20.846,-10.35 32.242,-10.35c11.85,-0 19.8,4.35 23.1,12.6c1.354,3.3 1.354,7.35 1.2,18.596l-0.3,21.75c-0.15,10.196 0.75,13.496 6.6,17.546l-8.55,10.499Z" style="fill:#58595b;fill-rule:nonzero;"/><path d="M1262.1,446.246c-1.654,-0.604 -2.854,-1.05 -4.65,-1.05c-6.904,-0 -12.75,5.1 -14.25,11.246l0,51.296l-16.496,-0l0,-53.546c0,-9.596 -1.05,-15.746 -2.704,-20.396l15.15,-3.9c1.8,3.45 2.85,7.8 2.85,12c6,-8.25 11.996,-12.15 19.346,-12.15c2.4,-0 3.904,0.3 5.85,1.2l-5.096,15.3Z" style="fill:#58595b;fill-rule:nonzero;"/><path d="M1303.65,442.496c-9.296,-0 -14.396,7.35 -14.396,19.646l28.05,-0c0,-12.296 -5.4,-19.646 -13.654,-19.646Zm-14.546,31.796l0,1.2c0,10.5 3.9,21.596 18.746,21.596c7.054,-0 13.2,-2.55 18.9,-7.501l6.45,10.051c-7.95,6.749 -17.096,10.045 -27.3,10.045c-21.446,0 -34.941,-15.446 -34.941,-39.741c-0,-13.35 2.845,-22.196 9.445,-29.696c6.15,-7.05 13.65,-10.2 23.246,-10.2c7.5,-0 14.4,1.95 20.85,7.8c6.6,6 9.896,15.296 9.896,32.996l0,3.45l-45.292,-0Z" style="fill:#58595b;fill-rule:nonzero;"/><path d="M1393.8,449.846c-3.75,-4.05 -8.25,-6.15 -13.8,-6.15c-10.5,-0 -15.296,8.396 -15.296,26.696c0,16.8 3.3,25.196 15.746,25.196c6.15,-0 11.1,-3.451 13.35,-7.201l0,-38.541Zm3.596,57.892c-0.746,-1.651 -0.896,-2.701 -1.35,-5.85c-5.096,5.1 -11.096,7.499 -18.596,7.499c-19.346,0 -31.046,-15.15 -31.046,-38.845c0,-23.85 13.2,-40.046 31.496,-40.046c6.45,-0 11.696,2.1 16.35,6.9c-0.154,-1.2 -0.45,-6.6 -0.45,-12.45l0,-27.746l16.346,2.554l0,81.584c0,15 0.9,22.65 2.4,26.4l-15.15,-0Z" style="fill:#58595b;fill-rule:nonzero;"/><path d="M1487.71,509.683c-11.849,0 -23.854,-3.145 -34.05,-9.295l6.601,-13.196c9.3,5.396 17.545,8.545 28.041,8.545c12.754,0 20.404,-6.15 20.404,-16.5c0,-7.645 -4.8,-12.445 -15.446,-15.445l-11.1,-3.15c-9.45,-2.7 -16.204,-6.596 -20.1,-12.446c-2.85,-4.2 -4.345,-9.15 -4.345,-15.15c-0,-18.296 14.396,-30.742 35.246,-30.742c11.845,0 23.695,3.446 32.841,9.896l-7.804,12.146c-9.592,-5.696 -16.192,-7.946 -24.446,-7.946c-10.196,-0 -16.942,5.546 -16.942,14.096c0,6.45 3.596,9.75 13.792,12.75l12.304,3.6c15,4.35 25.5,13.946 25.5,29.546c0,17.245 -13.95,33.291 -40.496,33.291Z" style="fill:#58595b;fill-rule:nonzero;"/><path d="M1573.66,442.496c-9.304,-0 -14.396,7.35 -14.396,19.646l28.042,-0c0,-12.296 -5.396,-19.646 -13.646,-19.646Zm-14.55,31.796l0,1.2c0,10.5 3.896,21.596 18.75,21.596c7.046,-0 13.2,-2.55 18.896,-7.501l6.454,10.051c-7.954,6.749 -17.1,10.045 -27.304,10.045c-21.446,0 -34.946,-15.446 -34.946,-39.741c0,-13.35 2.85,-22.196 9.45,-29.696c6.15,-7.05 13.646,-10.2 23.25,-10.2c7.496,-0 14.396,1.95 20.85,7.8c6.6,6 9.896,15.296 9.896,32.996l0,3.45l-45.296,-0Z" style="fill:#58595b;fill-rule:nonzero;"/><path d="M1656.31,446.246c-1.654,-0.604 -2.858,-1.05 -4.658,-1.05c-6.9,-0 -12.742,5.1 -14.246,11.246l0,51.296l-16.496,-0l0,-53.546c0,-9.596 -1.05,-15.746 -2.704,-20.396l15.154,-3.9c1.8,3.45 2.846,7.8 2.846,12c6,-8.25 11.996,-12.15 19.346,-12.15c2.4,-0 3.908,0.3 5.85,1.2l-5.092,15.3Z" style="fill:#58595b;fill-rule:nonzero;"/><path d="M1703.25,508.038l-14.542,-0l-27.304,-75.592l16.955,-2.4l13.2,40.946c1.795,5.55 3.75,13.196 4.645,16.946l0.3,-0c0.3,-1.796 1.955,-9.896 4.5,-17.546l12.6,-38.546l17.242,-0l-27.596,76.192Z" style="fill:#58595b;fill-rule:nonzero;"/><path d="M1740.61,507.738l0,-74.692l16.65,-3l0,77.692l-16.65,-0Zm8.254,-87.142c-6,-0 -10.654,-4.946 -10.654,-10.946c0,-6.15 4.8,-11.096 10.955,-11.096c5.841,0 10.799,4.8 10.799,11.096c0,6 -4.958,10.946 -11.1,10.946Z" style="fill:#58595b;fill-rule:nonzero;"/><path d="M1807.5,509.683c-20.696,0 -32.242,-14.545 -32.242,-38.991c0,-27.596 16.492,-40.796 33.446,-40.796c8.242,-0 14.242,1.95 20.996,8.25l-8.254,10.95c-4.5,-4.05 -8.396,-5.85 -12.742,-5.85c-5.25,-0 -9.604,2.7 -12.004,7.65c-2.246,4.646 -3.15,11.696 -3.15,21.146c0,10.35 1.654,16.946 5.104,20.696c2.4,2.699 5.996,4.35 10.05,4.35c5.25,-0 10.342,-2.55 15.292,-7.501l7.804,10.051c-6.9,6.9 -14.104,10.045 -24.3,10.045Z" style="fill:#58595b;fill-rule:nonzero;"/><path d="M1872.75,442.496c-9.3,-0 -14.396,7.35 -14.396,19.646l28.042,-0c-0,-12.296 -5.396,-19.646 -13.646,-19.646Zm-14.55,31.796l0,1.2c0,10.5 3.896,21.596 18.75,21.596c7.046,-0 13.2,-2.55 18.896,-7.501l6.454,10.051c-7.95,6.749 -17.1,10.045 -27.304,10.045c-21.442,0 -34.946,-15.446 -34.946,-39.741c0,-13.35 2.85,-22.196 9.45,-29.696c6.15,-7.05 13.646,-10.2 23.25,-10.2c7.496,-0 14.396,1.95 20.85,7.8c6.6,6 9.896,15.296 9.896,32.996l-0,3.45l-45.296,-0Z" style="fill:#58595b;fill-rule:nonzero;"/><path d="M1941.6,509.838c-9.292,-0 -19.342,-3.001 -29.092,-8.4l5.85,-11.851c6.746,3.9 16.05,7.95 24.596,7.95c7.2,0 12.296,-4.35 12.296,-10.65c0,-5.845 -3.746,-8.845 -12.296,-10.645l-9.15,-1.95c-11.4,-2.4 -18.146,-10.2 -18.146,-20.846c0,-14.25 11.392,-24.15 28.196,-24.15c10.346,-0 18.596,3.15 25.042,6.6l-5.396,11.396c-7.046,-3.746 -12.596,-5.546 -18.596,-5.546c-7.054,-0 -11.546,3.896 -11.546,9.746c0,4.654 2.546,7.05 10.196,9l9.45,2.4c15.3,3.9 19.342,12.3 19.342,21.145c-0,15.301 -12.442,25.801 -30.746,25.801Z" style="fill:#58595b;fill-rule:nonzero;"/><rect x="562.071" y="565.479" width="15.733" height="92.258" style="fill:#939598;fill-rule:nonzero;"/><path d="M634.738,657.737l-0,-44.8c-0,-9.195 -2.134,-11.729 -7.734,-11.729c-4.266,0 -10.4,3.2 -14.8,7.596l0,48.933l-14.4,0l0,-49.6c0,-7.062 -0.666,-11.195 -2.533,-15.995l13.333,-3.729c1.6,3.062 2.4,5.995 2.4,9.591c7.2,-6.125 13.467,-9.329 20.667,-9.329c10.4,0 17.6,6.267 17.6,18.667l-0,50.395l-14.533,0Z" style="fill:#939598;fill-rule:nonzero;"/><path d="M686.871,659.471c-13.067,-0 -17.6,-7.734 -17.6,-17.334l-0,-41.729l-7.467,0l0,-10.133l7.467,0c-0,-5.733 -0,-11.596 0.667,-16.667l15.062,-3.595c-0.663,5.462 -1.2,13.595 -1.2,20.262l16.133,0l-3.866,10.133l-12.396,0l-0,37.863c-0,8.4 1.862,10.8 8.262,10.8c2,-0 3.734,-0.396 6.267,-1.333l1.867,8.795c-4.4,2.004 -8.663,2.938 -13.196,2.938Z" style="fill:#939598;fill-rule:nonzero;"/><path d="M736.467,599.738c-8.263,-0 -12.796,6.537 -12.796,17.47l24.933,0c0,-10.933 -4.8,-17.47 -12.137,-17.47Zm-12.929,28.27l-0,1.063c-0,9.333 3.466,19.2 16.662,19.2c6.267,-0 11.733,-2.267 16.8,-6.667l5.733,8.934c-7.066,5.995 -15.2,8.933 -24.266,8.933c-19.063,-0 -31.063,-13.738 -31.063,-35.334c0,-11.866 2.533,-19.729 8.4,-26.395c5.467,-6.267 12.134,-9.067 20.663,-9.067c6.67,0 12.8,1.733 18.533,6.929c5.867,5.338 8.8,13.604 8.8,29.334l-0,3.07l-40.262,0Z" style="fill:#939598;fill-rule:nonzero;"/><path d="M809.933,603.075c-1.466,-0.537 -2.533,-0.933 -4.133,-0.933c-6.133,-0 -11.333,4.529 -12.663,10l0,45.595l-14.666,0l-0,-47.6c-0,-8.529 -0.934,-13.995 -2.4,-18.129l13.466,-3.466c1.601,3.066 2.534,6.933 2.534,10.666c5.329,-7.329 10.662,-10.795 17.196,-10.795c2.133,-0 3.466,0.262 5.2,1.066l-4.534,13.596Z" style="fill:#939598;fill-rule:nonzero;"/><path d="M846.867,599.738c-8.267,-0 -12.8,6.537 -12.8,17.47l24.933,0c0,-10.933 -4.8,-17.47 -12.133,-17.47Zm-12.929,28.27l-0,1.063c-0,9.333 3.466,19.2 16.662,19.2c6.267,-0 11.733,-2.267 16.8,-6.667l5.733,8.934c-7.066,5.995 -15.2,8.933 -24.266,8.933c-19.067,-0 -31.063,-13.738 -31.063,-35.334c0,-11.866 2.533,-19.729 8.4,-26.395c5.467,-6.267 12.129,-9.067 20.663,-9.067c6.666,0 12.8,1.733 18.533,6.929c5.867,5.338 8.8,13.604 8.8,29.334l-0,3.07l-40.262,0Z" style="fill:#939598;fill-rule:nonzero;"/><path d="M908.071,659.604c-8.267,0 -17.2,-2.666 -25.867,-7.462l5.2,-10.538c6,3.467 14.263,7.071 21.863,7.071c6.4,-0 10.933,-3.871 10.933,-9.471c0,-5.2 -3.333,-7.867 -10.933,-9.466l-8.134,-1.73c-10.129,-2.137 -16.129,-9.071 -16.129,-18.537c0,-12.663 10.133,-21.463 25.067,-21.463c9.2,0 16.529,2.8 22.262,5.867l-4.8,10.133c-6.266,-3.333 -11.2,-4.937 -16.533,-4.937c-6.267,-0 -10.267,3.467 -10.267,8.666c0,4.138 2.267,6.267 9.071,8.001l8.4,2.133c13.596,3.466 17.196,10.937 17.196,18.8c0,13.596 -11.067,22.933 -27.329,22.933Z" style="fill:#939598;fill-rule:nonzero;"/><path d="M968.6,659.604c-8.262,0 -17.196,-2.666 -25.862,-7.462l5.2,-10.538c6,3.467 14.266,7.071 21.862,7.071c6.404,-0 10.933,-3.871 10.933,-9.471c0,-5.2 -3.329,-7.867 -10.933,-9.466l-8.129,-1.73c-10.133,-2.137 -16.133,-9.071 -16.133,-18.537c-0,-12.663 10.133,-21.463 25.066,-21.463c9.2,0 16.533,2.8 22.267,5.867l-4.804,10.133c-6.267,-3.333 -11.196,-4.937 -16.534,-4.937c-6.262,-0 -10.262,3.467 -10.262,8.666c-0,4.138 2.266,6.267 9.062,8.001l8.405,2.133c13.599,3.466 17.195,10.937 17.195,18.8c0,13.596 -11.062,22.933 -27.333,22.933Z" style="fill:#939598;fill-rule:nonzero;"/><path d="M1035.67,599.738c-8.263,-0 -12.796,6.537 -12.796,17.47l24.929,0c0,-10.933 -4.8,-17.47 -12.133,-17.47Zm-12.929,28.27l-0,1.063c-0,9.333 3.466,19.2 16.666,19.2c6.263,-0 11.729,-2.267 16.796,-6.667l5.734,8.934c-7.071,5.995 -15.201,8.933 -24.263,8.933c-19.071,-0 -31.071,-13.738 -31.071,-35.334c0,-11.866 2.538,-19.729 8.404,-26.395c5.467,-6.267 12.13,-9.067 20.663,-9.067c6.666,0 12.8,1.733 18.533,6.929c5.867,5.338 8.8,13.604 8.8,29.334l0,3.07l-40.262,0Z" style="fill:#939598;fill-rule:nonzero;"/><path d="M1114.6,657.737l-0,-44.8c-0,-9.195 -2.129,-11.729 -7.729,-11.729c-4.267,0 -10.4,3.2 -14.804,7.596l-0,48.933l-14.4,0l-0,-49.6c-0,-7.062 -0.667,-11.195 -2.525,-15.995l13.329,-3.729c1.6,3.062 2.396,5.995 2.396,9.591c7.204,-6.125 13.47,-9.329 20.671,-9.329c10.395,0 17.6,6.267 17.6,18.667l-0,50.395l-14.538,0Z" style="fill:#939598;fill-rule:nonzero;"/><path d="M1172.2,599.738c-7.467,-0 -11.604,4.137 -11.604,11.737c0,7.729 4.4,11.333 11.604,11.333c7.596,0 11.596,-4 11.596,-11.466c-0,-7.6 -3.867,-11.604 -11.596,-11.604Zm27.992,1.337c-2.8,-0 -4.796,-0.533 -5.196,-0.667c0.4,0.396 4.4,4.8 4.4,11.734c-0,11.729 -9.733,20.662 -25.6,20.662c-4.8,1.734 -9.063,4.267 -9.063,6.4c0,2.533 0.93,2.8 16.796,2.8c10.8,0 22.4,5.463 22.4,19.2c0,14.396 -12,22.129 -29.996,22.129c-17.47,0 -30.133,-5.729 -30.133,-18.396c0,-2.8 1.067,-6.4 1.334,-7.2l13.866,0c-0.271,0.53 -1.067,2.93 -1.067,4.8c0,6.267 5.33,9.734 14.801,9.734c10.395,-0 15.995,-4.271 15.995,-10.538c0,-7.329 -6.133,-9.329 -18.666,-9.329c-18.134,0 -22.134,-3.6 -22.134,-10.267c0,-6.662 5.604,-9.333 12.804,-11.595c-10.133,-2.938 -15.333,-9.467 -15.333,-19.067c0,-13.733 10.8,-22.8 26.929,-22.8c9.605,0 15.067,3.467 20.534,3.467c4.4,-0 8.529,-1.6 12.266,-4.667l6.8,9.2c-3.737,3.2 -7.2,4.4 -11.737,4.4Z" style="fill:#939598;fill-rule:nonzero;"/><path d="M1243,599.738c-8.267,-0 -12.796,6.537 -12.796,17.47l24.929,0c0,-10.933 -4.8,-17.47 -12.133,-17.47Zm-12.933,28.27l-0,1.063c-0,9.333 3.466,19.2 16.666,19.2c6.267,-0 11.734,-2.267 16.8,-6.667l5.734,8.934c-7.071,5.995 -15.2,8.933 -24.267,8.933c-19.067,-0 -31.067,-13.738 -31.067,-35.334c0,-11.866 2.538,-19.729 8.404,-26.395c5.463,-6.267 12.13,-9.067 20.663,-9.067c6.663,0 12.8,1.733 18.533,6.929c5.863,5.338 8.796,13.604 8.796,29.334l0,3.07l-40.262,0Z" style="fill:#939598;fill-rule:nonzero;"/><path d="M1355.66,657.737l-0,-46.662c-0,-7.871 -1.734,-10.133 -6.934,-10.133c-4.933,-0 -9.6,3.329 -14.267,7.733l0,49.062l-13.995,0l-0,-46.262c-0,-7.871 -1.734,-10.4 -7.334,-10.4c-4.133,-0 -8.933,2.129 -13.866,6.662l-0,50l-14.267,0l-0,-48.395c-0,-8.4 -0.8,-13.467 -2.4,-17.067l13.333,-3.733c1.334,2.133 2.134,4.929 2.4,8.666c5.329,-5.471 11.596,-8.533 17.863,-8.533c6.004,0 11.204,2 16.133,9.867c6.538,-6.663 12.934,-9.867 20.134,-9.867c11.066,0 17.6,5.733 17.6,19.729l-0,49.333l-14.4,0Z" style="fill:#939598;fill-rule:nonzero;"/><path d="M1415.12,599.738c-8.262,-0 -12.796,6.537 -12.796,17.47l24.929,0c0,-10.933 -4.8,-17.47 -12.133,-17.47Zm-12.929,28.27l-0,1.063c-0,9.333 3.467,19.2 16.667,19.2c6.266,-0 11.729,-2.267 16.795,-6.667l5.734,8.934c-7.067,5.995 -15.196,8.933 -24.263,8.933c-19.066,-0 -31.067,-13.738 -31.067,-35.334c0,-11.866 2.534,-19.729 8.4,-26.395c5.467,-6.267 12.134,-9.067 20.663,-9.067c6.667,0 12.804,1.733 18.538,6.929c5.862,5.338 8.795,13.604 8.795,29.334l0,3.07l-40.262,0Z" style="fill:#939598;fill-rule:nonzero;"/><path d="M1457.13,657.737l0,-66.395l14.796,-2.667l-0,69.062l-14.796,0Zm7.334,-77.462c-5.334,-0 -9.467,-4.396 -9.467,-9.729c-0,-5.467 4.266,-9.871 9.733,-9.871c5.2,-0 9.596,4.267 9.596,9.871c0,5.333 -4.396,9.729 -9.862,9.729Z" style="fill:#939598;fill-rule:nonzero;"/><path d="M1528.86,657.737l0,-44.8c0,-9.195 -2.133,-11.729 -7.733,-11.729c-4.263,0 -10.4,3.2 -14.792,7.596l0,48.933l-14.404,0l0,-49.6c0,-7.062 -0.671,-11.195 -2.533,-15.995l13.329,-3.729c1.604,3.062 2.4,5.995 2.4,9.591c7.204,-6.125 13.471,-9.329 20.671,-9.329c10.396,0 17.596,6.267 17.596,18.667l-0,50.395l-14.534,0Z" style="fill:#939598;fill-rule:nonzero;"/><path d="M1583.26,659.604c-8.258,0 -17.195,-2.666 -25.862,-7.462l5.2,-10.538c6,3.467 14.266,7.071 21.866,7.071c6.401,-0 10.934,-3.871 10.934,-9.471c-0,-5.2 -3.329,-7.867 -10.934,-9.466l-8.129,-1.73c-10.137,-2.137 -16.137,-9.071 -16.137,-18.537c-0,-12.663 10.133,-21.463 25.067,-21.463c9.204,0 16.537,2.8 22.266,5.867l-4.804,10.133c-6.267,-3.333 -11.196,-4.937 -16.525,-4.937c-6.267,-0 -10.271,3.467 -10.271,8.666c0,4.138 2.271,6.267 9.063,8.001l8.408,2.133c13.6,3.466 17.196,10.937 17.196,18.8c-0,13.596 -11.067,22.933 -27.338,22.933Z" style="fill:#939598;fill-rule:nonzero;"/><path d="M1649.92,659.471c-18.4,-0 -28.658,-12.934 -28.658,-34.667c-0,-24.529 14.662,-36.262 29.725,-36.262c7.333,-0 12.67,1.733 18.67,7.333l-7.333,9.733c-4.004,-3.6 -7.471,-5.2 -11.337,-5.2c-4.663,0 -8.529,2.4 -10.659,6.8c-2.004,4.134 -2.8,10.396 -2.8,18.8c0,9.196 1.463,15.063 4.534,18.396c2.129,2.396 5.329,3.867 8.925,3.867c4.671,-0 9.204,-2.267 13.6,-6.667l6.933,8.934c-6.129,6.133 -12.533,8.933 -21.6,8.933Z" style="fill:#939598;fill-rule:nonzero;"/><path d="M1723.8,657.737l-0,-45.862c-0,-8.4 -2.929,-10.8 -8.529,-10.8c-5.2,-0 -11.467,3.333 -16.267,8.267l0,48.395l-14.804,0l-0,-80.262c-0,-6 -0.529,-11.2 -1.325,-14.667l14.791,-3.196c0.938,3.863 1.338,9.334 1.338,15.863l0,14.4c0,3.733 -0.271,6.933 -0.271,7.6c6.667,-6 13.471,-8.8 20.663,-8.8c8,0 14.137,3.867 16.408,8.267c1.725,3.333 2.263,6.4 2.263,13.195l-0,47.6l-14.267,0Z" style="fill:#939598;fill-rule:nonzero;"/><path d="M1787,625.871c-14.667,-0 -19.067,4.267 -19.067,12.8c0,6.4 3.467,10.4 9.333,10.4c4.663,-0 9.196,-2.8 12.134,-7.067l0.262,-15.996c-0.262,0 -1.733,-0.137 -2.662,-0.137Zm15.191,34.666c-4.124,-1.604 -7.591,-4.8 -9.195,-9.066c-5.467,6.129 -11.334,8.267 -18.529,8.267c-15.471,-0 -22.405,-8.534 -22.405,-20.267c0,-15.6 11.738,-23.463 33.334,-23.463l4.533,0l0,-3.604c0,-7.729 -1.333,-11.862 -9.333,-11.862c-8.659,-0 -17.996,6.129 -20.125,7.733l-6.538,-10.533c10.134,-6.4 18.533,-9.2 28.663,-9.2c10.533,-0 17.604,3.866 20.533,11.196c1.204,2.937 1.204,6.537 1.067,16.537l-0.271,19.329c-0.129,9.067 0.671,12.004 5.871,15.6l-7.605,9.333Z" style="fill:#939598;fill-rule:nonzero;"/><path d="M1864.99,573.608l15.07,-3.595c-0.666,5.462 -1.204,13.595 -1.204,20.262l16.138,0l-3.875,10.133l-12.392,0l0,37.863c0,8.4 1.863,10.8 8.267,10.8c1.991,-0 3.725,-0.396 6.266,-1.333l1.863,8.795c-4.404,2.004 -8.667,2.938 -13.2,2.938c-13.071,-0 -17.6,-7.734 -17.6,-17.334l-0,-41.729l-25.725,0l0,57.329l-14.538,0l0,-57.329l-6.266,0l-0,-10.133l6.537,0c0,-2.133 -0.408,-7.6 -0.408,-10.133c0,-8.796 3.604,-14.4 8.138,-17.334c3.2,-2.133 7.333,-3.196 12.533,-3.196c5.6,0 10.4,1.201 15.196,3.863l-4.796,9.337c-3.338,-1.604 -5.467,-2.404 -8.138,-2.404c-5.2,0 -8.4,3.467 -8.4,9.467l0,10.4l25.867,0c-0,-5.733 -0,-11.596 0.667,-16.667Z" style="fill:#939598;fill-rule:nonzero;"/><path d="M1963.92,572.942c-3.329,-1.596 -5.329,-2.396 -8.129,-2.396c-5.071,-0 -8.271,3.462 -8.271,9.462l0,10.267l17.604,0l-3.737,10.133l-13.73,0l0,57.329l-14.533,0l0,-57.329l-6.267,0l0,-10.133l6.538,0c-0.142,-0.796 -0.408,-4.4 -0.408,-10c-0,-14 8.537,-20.529 20.533,-20.529c5.737,-0 10.538,1.2 15.2,3.866l-4.8,9.33Z" style="fill:#939598;fill-rule:nonzero;"/><path d="M2011.25,583.075c-4.929,-0 -8.933,-4.267 -8.933,-9.333c-0,-5.196 4.004,-9.33 8.933,-9.33c4.934,0 8.938,4.134 8.938,9.33c-0,5.066 -4.004,9.333 -8.938,9.333Zm-27.862,-0c-4.934,-0 -8.938,-4.267 -8.938,-9.333c0,-5.196 4.004,-9.33 8.938,-9.33c4.929,0 8.933,4.134 8.933,9.33c-0,5.066 -4.004,9.333 -8.933,9.333Zm33.591,76.796c-2.929,-2.134 -4.662,-4.534 -5.858,-8.4c-4.942,5.6 -11.467,8.267 -19.204,8.267c-7.596,-0 -13.463,-2.667 -16.8,-6.671c-2.659,-3.196 -3.734,-7.596 -3.734,-15.996l0,-45.729l14.405,-2.667l-0,45.196c-0,8.396 1.196,14.533 9.862,14.533c4.933,0 10.938,-4 13.2,-8.796l0,-48.266l14.138,-2.667l-0,50.796c-0,9.062 3.325,12.8 4.125,13.467l-10.134,6.933Z" style="fill:#939598;fill-rule:nonzero;"/><path d="M2073.13,603.075c-1.466,-0.537 -2.541,-0.933 -4.133,-0.933c-6.138,-0 -11.338,4.529 -12.671,10l0,45.595l-14.667,0l0,-47.6c0,-8.529 -0.929,-13.995 -2.4,-18.129l13.467,-3.466c1.604,3.066 2.533,6.933 2.533,10.666c5.338,-7.329 10.667,-10.795 17.204,-10.795c2.13,-0 3.467,0.262 5.201,1.066l-4.534,13.596Z" style="fill:#939598;fill-rule:nonzero;"/><path d="M2151.12,606.275c-3.338,-3.6 -7.333,-5.471 -12.267,-5.471c-9.333,0 -13.596,7.471 -13.596,23.738c0,14.929 2.93,22.4 13.996,22.4c5.459,-0 9.863,-3.071 11.867,-6.409l0,-34.258Zm3.196,51.462c-0.667,-1.466 -0.796,-2.4 -1.196,-5.199c-4.533,4.533 -9.875,6.666 -16.537,6.666c-17.196,0 -27.596,-13.471 -27.596,-34.529c-0,-21.2 11.737,-35.6 27.996,-35.6c5.737,-0 10.399,1.867 14.533,6.133c-0.129,-1.066 -0.396,-5.87 -0.396,-11.066l0,-24.667l14.533,2.267l0,72.529c0,13.337 0.792,20.133 2.134,23.466l-13.471,0Z" style="fill:#939598;fill-rule:nonzero;"/><path d="M2185.66,657.737l-0,-66.395l14.791,-2.667l0,69.062l-14.791,0Zm7.329,-77.462c-5.329,-0 -9.463,-4.396 -9.463,-9.729c0,-5.467 4.263,-9.871 9.733,-9.871c5.2,-0 9.596,4.267 9.596,9.871c0,5.333 -4.396,9.729 -9.866,9.729Z" style="fill:#939598;fill-rule:nonzero;"/><path d="M2245.53,599.738c-8.271,-0 -12.8,6.537 -12.8,17.47l24.933,0c0,-10.933 -4.8,-17.47 -12.133,-17.47Zm-12.933,28.27l-0,1.063c-0,9.333 3.466,19.2 16.666,19.2c6.267,-0 11.73,-2.267 16.8,-6.667l5.73,8.934c-7.067,5.995 -15.196,8.933 -24.263,8.933c-19.067,-0 -31.071,-13.738 -31.071,-35.334c0,-11.866 2.542,-19.729 8.408,-26.395c5.459,-6.267 12.126,-9.067 20.663,-9.067c6.663,0 12.8,1.733 18.529,6.929c5.867,5.338 8.796,13.604 8.796,29.334l0,3.07l-40.258,0Z" style="fill:#939598;fill-rule:nonzero;"/><path d="M585.137,749.738c-7.466,-0 -11.599,4.137 -11.599,11.737c-0,7.729 4.4,11.333 11.599,11.333c7.601,0 11.6,-4 11.6,-11.466c0,-7.6 -3.866,-11.604 -11.6,-11.604Zm27.996,1.337c-2.8,-0 -4.8,-0.533 -5.2,-0.667c0.4,0.396 4.4,4.8 4.4,11.734c0,11.729 -9.729,20.662 -25.595,20.662c-4.801,1.733 -9.067,4.267 -9.067,6.4c-0,2.534 0.933,2.8 16.8,2.8c10.8,0 22.396,5.463 22.396,19.2c-0,14.396 -12,22.129 -29.996,22.129c-17.467,0 -30.133,-5.729 -30.133,-18.395c-0,-2.8 1.07,-6.401 1.337,-7.201l13.862,0c-0.266,0.53 -1.066,2.93 -1.066,4.8c-0,6.267 5.333,9.734 14.8,9.734c10.4,-0 15.996,-4.271 15.996,-10.538c-0,-7.329 -6.129,-9.329 -18.663,-9.329c-18.133,0 -22.133,-3.6 -22.133,-10.267c-0,-6.662 5.6,-9.333 12.8,-11.595c-10.134,-2.938 -15.333,-9.467 -15.333,-19.067c-0,-13.733 10.8,-22.8 26.933,-22.8c9.6,-0 15.066,3.467 20.533,3.467c4.396,-0 8.529,-1.6 12.263,-4.667l6.8,9.2c-3.734,3.2 -7.2,4.4 -11.734,4.4Z" style="fill:#939598;fill-rule:nonzero;"/><path d="M655.938,749.738c-8.267,-0 -12.801,6.537 -12.801,17.47l24.934,0c-0,-10.933 -4.8,-17.47 -12.133,-17.47Zm-12.934,28.27l0,1.063c0,9.333 3.467,19.2 16.667,19.2c6.266,-0 11.733,-2.267 16.8,-6.667l5.733,8.934c-7.066,5.995 -15.2,8.933 -24.267,8.933c-19.066,-0 -31.062,-13.738 -31.062,-35.333c-0,-11.867 2.533,-19.73 8.396,-26.396c5.466,-6.267 12.133,-9.067 20.667,-9.067c6.666,-0 12.799,1.733 18.533,6.929c5.867,5.338 8.796,13.604 8.796,29.333l-0,3.071l-40.263,0Z" style="fill:#939598;fill-rule:nonzero;"/><path d="M717.138,809.604c-8.267,0 -17.2,-2.667 -25.867,-7.462l5.2,-10.538c6,3.467 14.266,7.071 21.862,7.071c6.404,0 10.934,-3.871 10.934,-9.471c-0,-5.2 -3.329,-7.867 -10.934,-9.466l-8.129,-1.73c-10.133,-2.137 -16.133,-9.07 -16.133,-18.537c-0,-12.663 10.133,-21.463 25.067,-21.463c9.195,0 16.529,2.8 22.262,5.867l-4.8,10.133c-6.267,-3.333 -11.196,-4.937 -16.533,-4.937c-6.263,-0 -10.263,3.466 -10.263,8.667c0,4.137 2.263,6.266 9.067,8l8.396,2.133c13.6,3.467 17.2,10.937 17.2,18.8c-0,13.596 -11.067,22.933 -27.329,22.933Z" style="fill:#939598;fill-rule:nonzero;"/><path d="M784.2,749.738c-8.262,-0 -12.796,6.537 -12.796,17.47l24.934,0c-0,-10.933 -4.801,-17.47 -12.138,-17.47Zm-12.929,28.27l-0,1.063c-0,9.333 3.466,19.2 16.662,19.2c6.267,-0 11.734,-2.267 16.8,-6.667l5.734,8.934c-7.067,5.995 -15.2,8.933 -24.267,8.933c-19.062,-0 -31.062,-13.738 -31.062,-35.333c-0,-11.867 2.533,-19.73 8.399,-26.396c5.467,-6.267 12.134,-9.067 20.663,-9.067c6.671,-0 12.8,1.733 18.533,6.929c5.867,5.338 8.8,13.604 8.8,29.333l0,3.071l-40.262,0Z" style="fill:#939598;fill-rule:nonzero;"/><path d="M843.804,809.471c-13.067,-0 -17.6,-7.734 -17.6,-17.334l0,-41.729l-7.467,0l0,-10.133l7.467,0c0,-5.733 0,-11.596 0.667,-16.667l15.062,-3.596c-0.662,5.463 -1.2,13.596 -1.2,20.263l16.134,0l-3.867,10.133l-12.396,0l0,37.863c0,8.4 1.863,10.8 8.267,10.8c1.996,-0 3.733,-0.396 6.262,-1.334l1.867,8.796c-4.396,2.004 -8.663,2.938 -13.196,2.938Z" style="fill:#939598;fill-rule:nonzero;"/><path d="M910.596,807.737l-47.592,0l0,-9.733l33.863,-47.329l-31.2,0l-0,-10.4l47.729,0l-0,10.4l-31.996,46.792l33.467,-0l-4.271,10.27Z" style="fill:#939598;fill-rule:nonzero;"/><path d="M942.337,809.204c-14.8,0 -14.8,-13.329 -14.8,-19.066l0,-57.463c0,-9.196 -0.399,-14.129 -1.329,-19.733l15.063,-3.33c1.066,4.134 1.2,9.73 1.2,18.53l-0,57.195c-0,9.067 0.4,10.538 1.462,12.13c0.804,1.208 3.071,1.875 4.805,1.066l2.399,9.067c-2.67,1.071 -5.47,1.604 -8.8,1.604Z" style="fill:#939598;fill-rule:nonzero;"/><path d="M962.467,807.737l-0,-66.395l14.795,-2.667l0,69.062l-14.795,0Zm7.329,-77.462c-5.329,0 -9.463,-4.396 -9.463,-9.729c0,-5.467 4.267,-9.871 9.734,-9.871c5.2,0 9.6,4.267 9.6,9.871c-0,5.333 -4.4,9.729 -9.871,9.729Z" style="fill:#939598;fill-rule:nonzero;"/><path d="M1021.93,809.471c-18.4,-0 -28.666,-12.934 -28.666,-34.667c-0,-24.529 14.67,-36.262 29.733,-36.262c7.333,-0 12.667,1.733 18.667,7.333l-7.334,9.733c-4,-3.6 -7.466,-5.2 -11.333,-5.2c-4.667,0 -8.533,2.4 -10.667,6.8c-2,4.134 -2.795,10.396 -2.795,18.8c-0,9.196 1.462,15.063 4.529,18.396c2.133,2.396 5.333,3.867 8.933,3.867c4.667,-0 9.2,-2.267 13.6,-6.667l6.933,8.934c-6.133,6.133 -12.533,8.933 -21.6,8.933Z" style="fill:#939598;fill-rule:nonzero;"/><path d="M1095.8,807.737l-0,-45.862c-0,-8.4 -2.934,-10.8 -8.534,-10.8c-5.199,-0 -11.466,3.333 -16.266,8.267l-0,48.395l-14.8,0l-0,-80.262c-0,-6 -0.534,-11.2 -1.333,-14.667l14.799,-3.196c0.934,3.863 1.334,9.334 1.334,15.863l-0,14.4c-0,3.733 -0.267,6.933 -0.267,7.6c6.667,-6 13.467,-8.8 20.659,-8.8c8.004,-0 14.141,3.867 16.408,8.267c1.729,3.333 2.267,6.4 2.267,13.196l-0,47.599l-14.267,0Z" style="fill:#939598;fill-rule:nonzero;"/><path d="M1155.12,749.738c-8.262,-0 -12.796,6.537 -12.796,17.47l24.929,0c0,-10.933 -4.8,-17.47 -12.133,-17.47Zm-12.933,28.27l-0,1.063c-0,9.333 3.466,19.2 16.666,19.2c6.267,-0 11.734,-2.267 16.8,-6.667l5.734,8.934c-7.071,5.995 -15.2,8.933 -24.267,8.933c-19.067,-0 -31.067,-13.738 -31.067,-35.333c0,-11.867 2.538,-19.73 8.404,-26.396c5.467,-6.267 12.13,-9.067 20.663,-9.067c6.667,-0 12.8,1.733 18.533,6.929c5.863,5.338 8.8,13.604 8.8,29.333l0,3.071l-40.266,0Z" style="fill:#939598;fill-rule:nonzero;"/><path d="M1255.65,809.333c-24.262,0 -31.866,-12.533 -31.866,-27.325l-0,-66.529l15.466,0l0,61.996c0,14.129 5.067,18.796 16.4,18.796c11.2,-0 16.667,-6.534 16.667,-18.796l-0,-61.996l15.333,0l0,66.392c0,16.933 -11.733,27.462 -32,27.462Z" style="fill:#939598;fill-rule:nonzero;"/><path d="M1343.92,807.737l-0,-44.8c-0,-9.195 -2.134,-11.729 -7.734,-11.729c-4.266,0 -10.4,3.2 -14.8,7.596l0,48.933l-14.399,0l-0,-49.6c-0,-7.062 -0.667,-11.195 -2.53,-15.995l13.33,-3.73c1.6,3.063 2.4,5.996 2.4,9.592c7.199,-6.125 13.466,-9.329 20.666,-9.329c10.396,-0 17.6,6.267 17.6,18.667l0,50.395l-14.533,0Z" style="fill:#939598;fill-rule:nonzero;"/><path d="M1409.25,722.942c-3.333,-1.596 -5.333,-2.396 -8.133,-2.396c-5.067,-0 -8.263,3.462 -8.263,9.462l0,10.267l17.596,0l-3.729,10.133l-13.734,0l0,57.329l-14.533,0l0,-57.329l-6.266,0l-0,-10.133l6.533,0c-0.134,-0.796 -0.404,-4.4 -0.404,-10c-0,-14 8.533,-20.529 20.533,-20.529c5.733,-0 10.533,1.2 15.204,3.867l-4.804,9.329Z" style="fill:#939598;fill-rule:nonzero;"/><path d="M1446.31,775.871c-14.662,-0 -19.058,4.266 -19.058,12.8c0,6.4 3.463,10.4 9.329,10.4c4.667,-0 9.2,-2.8 12.13,-7.067l0.27,-15.996c-0.27,0 -1.733,-0.137 -2.671,-0.137Zm15.205,34.666c-4.138,-1.604 -7.605,-4.8 -9.205,-9.066c-5.462,6.129 -11.333,8.266 -18.529,8.266c-15.466,0 -22.4,-8.533 -22.4,-20.266c0,-15.6 11.734,-23.463 33.334,-23.463l4.533,0l0,-3.604c0,-7.729 -1.333,-11.862 -9.333,-11.862c-8.667,-0 -18,6.129 -20.13,7.733l-6.537,-10.533c10.133,-6.4 18.533,-9.2 28.667,-9.2c10.533,-0 17.595,3.866 20.533,11.196c1.196,2.937 1.196,6.537 1.067,16.537l-0.267,19.329c-0.133,9.067 0.667,12.004 5.867,15.6l-7.6,9.333Z" style="fill:#939598;fill-rule:nonzero;"/><path d="M1498.18,809.204c-14.8,0 -14.8,-13.329 -14.8,-19.066l0,-57.463c0,-9.196 -0.4,-14.129 -1.329,-19.733l15.067,-3.33c1.062,4.134 1.196,9.73 1.196,18.53l-0,57.195c-0,9.067 0.396,10.538 1.462,12.13c0.808,1.208 3.071,1.875 4.804,1.066l2.4,9.067c-2.67,1.071 -5.47,1.604 -8.8,1.604Z" style="fill:#939598;fill-rule:nonzero;"/><path d="M1531.78,809.204c-14.796,0 -14.796,-13.329 -14.796,-19.066l0,-57.463c0,-9.196 -0.4,-14.129 -1.333,-19.733l15.063,-3.33c1.066,4.134 1.204,9.73 1.204,18.53l-0,57.195c-0,9.067 0.4,10.538 1.466,12.13c0.796,1.208 3.067,1.875 4.8,1.066l2.4,9.067c-2.666,1.071 -5.466,1.604 -8.804,1.604Z" style="fill:#939598;fill-rule:nonzero;"/><path d="M1579.11,808.004l-12.929,0l-24.258,-67.196l15.062,-2.133l11.734,36.396c1.596,4.933 3.329,11.737 4.125,15.067l0.27,-0c0.267,-1.601 1.734,-8.801 4.005,-15.596l11.196,-34.267l15.333,0l-24.538,67.729Z" style="fill:#939598;fill-rule:nonzero;"/><path d="M1637.38,749.738c-8.271,-0 -12.804,6.537 -12.804,17.47l24.937,0c0,-10.933 -4.804,-17.47 -12.133,-17.47Zm-12.933,28.27l-0,1.063c-0,9.333 3.467,19.2 16.667,19.2c6.266,-0 11.729,-2.267 16.795,-6.667l5.73,8.934c-7.063,5.995 -15.192,8.933 -24.259,8.933c-19.066,-0 -31.071,-13.738 -31.071,-35.333c0,-11.867 2.542,-19.73 8.409,-26.396c5.458,-6.267 12.125,-9.067 20.662,-9.067c6.663,-0 12.8,1.733 18.529,6.929c5.867,5.338 8.796,13.604 8.796,29.333l0,3.071l-40.258,0Z" style="fill:#939598;fill-rule:nonzero;"/><path d="M1710.84,753.075c-1.467,-0.538 -2.534,-0.933 -4.138,-0.933c-6.125,-0 -11.325,4.529 -12.662,10l-0,45.595l-14.663,0l0,-47.599c0,-8.53 -0.937,-13.996 -2.4,-18.13l13.467,-3.466c1.596,3.066 2.529,6.933 2.529,10.666c5.333,-7.329 10.671,-10.796 17.196,-10.796c2.133,0 3.467,0.263 5.2,1.067l-4.529,13.596Z" style="fill:#939598;fill-rule:nonzero;"/><path d="M1742.58,809.604c-8.271,0 -17.196,-2.667 -25.862,-7.462l5.2,-10.538c5.996,3.467 14.266,7.071 21.858,7.071c6.404,0 10.938,-3.871 10.938,-9.471c-0,-5.2 -3.338,-7.867 -10.938,-9.466l-8.129,-1.73c-10.134,-2.137 -16.129,-9.07 -16.129,-18.537c-0,-12.663 10.129,-21.463 25.062,-21.463c9.196,0 16.529,2.8 22.267,5.867l-4.8,10.133c-6.267,-3.333 -11.2,-4.937 -16.538,-4.937c-6.266,-0 -10.262,3.466 -10.262,8.667c-0,4.137 2.262,6.266 9.067,8l8.395,2.133c13.6,3.467 17.196,10.937 17.196,18.8c0,13.596 -11.058,22.933 -27.325,22.933Z" style="fill:#939598;fill-rule:nonzero;"/><path d="M1783.25,807.737l-0,-66.395l14.8,-2.667l-0,69.062l-14.8,0Zm7.329,-77.462c-5.329,0 -9.462,-4.396 -9.462,-9.729c-0,-5.467 4.262,-9.871 9.733,-9.871c5.2,0 9.6,4.267 9.6,9.871c-0,5.333 -4.4,9.729 -9.871,9.729Z" style="fill:#939598;fill-rule:nonzero;"/><path d="M1842.71,809.471c-18.4,-0 -28.662,-12.934 -28.662,-34.667c-0,-24.529 14.666,-36.262 29.729,-36.262c7.333,-0 12.671,1.733 18.667,7.333l-7.33,9.733c-4.004,-3.6 -7.47,-5.2 -11.337,-5.2c-4.663,0 -8.529,2.4 -10.663,6.8c-1.999,4.134 -2.8,10.396 -2.8,18.8c0,9.196 1.467,15.063 4.534,18.396c2.133,2.396 5.333,3.867 8.929,3.867c4.671,-0 9.204,-2.267 13.6,-6.667l6.933,8.934c-6.129,6.133 -12.533,8.933 -21.6,8.933Z" style="fill:#939598;fill-rule:nonzero;"/><path d="M1916.58,807.737l0,-45.862c0,-8.4 -2.933,-10.8 -8.529,-10.8c-5.2,-0 -11.467,3.333 -16.271,8.267l0,48.395l-14.8,0l0,-80.262c0,-6 -0.529,-11.2 -1.329,-14.667l14.796,-3.196c0.937,3.863 1.333,9.334 1.333,15.863l0,14.4c0,3.733 -0.266,6.933 -0.266,7.6c6.666,-6 13.466,-8.8 20.662,-8.8c8,-0 14.133,3.867 16.404,8.267c1.725,3.333 2.263,6.4 2.263,13.196l-0,47.599l-14.263,0Z" style="fill:#939598;fill-rule:nonzero;"/><path d="M1975.91,749.738c-8.27,-0 -12.804,6.537 -12.804,17.47l24.938,0c-0,-10.933 -4.8,-17.47 -12.134,-17.47Zm-12.933,28.27l0,1.063c0,9.333 3.467,19.2 16.667,19.2c6.266,-0 11.729,-2.267 16.796,-6.667l5.729,8.934c-7.063,5.995 -15.192,8.933 -24.258,8.933c-19.067,-0 -31.071,-13.738 -31.071,-35.333c-0,-11.867 2.541,-19.73 8.408,-26.396c5.458,-6.267 12.125,-9.067 20.662,-9.067c6.663,-0 12.8,1.733 18.53,6.929c5.866,5.338 8.796,13.604 8.796,29.333l-0,3.071l-40.259,0Z" style="fill:#939598;fill-rule:nonzero;"/><path d="M2049.38,753.075c-1.467,-0.538 -2.542,-0.933 -4.138,-0.933c-6.133,-0 -11.333,4.529 -12.67,10l-0,45.595l-14.663,0l0,-47.599c0,-8.53 -0.929,-13.996 -2.4,-18.13l13.467,-3.466c1.604,3.066 2.533,6.933 2.533,10.666c5.338,-7.329 10.667,-10.796 17.2,-10.796c2.133,0 3.467,0.263 5.204,1.067l-4.533,13.596Z" style="fill:#939598;fill-rule:nonzero;"/><path d="M2106.84,809.871c-2.929,-2.134 -4.666,-4.533 -5.862,-8.4c-4.937,5.6 -11.467,8.266 -19.204,8.266c-7.592,0 -13.459,-2.666 -16.796,-6.67c-2.663,-3.196 -3.738,-7.596 -3.738,-15.996l0,-45.729l14.405,-2.667l-0,45.196c-0,8.396 1.196,14.533 9.862,14.533c4.933,0 10.938,-4 13.2,-8.796l0,-48.266l14.138,-2.667l-0,50.796c-0,9.062 3.329,12.8 4.125,13.466l-10.13,6.934Z" style="fill:#939598;fill-rule:nonzero;"/><path d="M2168.43,807.737l0,-44.8c0,-9.195 -2.133,-11.729 -7.733,-11.729c-4.267,0 -10.4,3.2 -14.792,7.596l0,48.933l-14.404,0l0,-49.6c0,-7.062 -0.671,-11.195 -2.533,-15.995l13.325,-3.73c1.608,3.063 2.408,5.996 2.408,9.592c7.196,-6.125 13.467,-9.329 20.667,-9.329c10.396,-0 17.596,6.267 17.596,18.667l-0,50.395l-14.534,0Z" style="fill:#939598;fill-rule:nonzero;"/><path d="M2226.04,749.738c-7.471,-0 -11.604,4.137 -11.604,11.737c-0,7.729 4.399,11.333 11.604,11.333c7.591,0 11.596,-4 11.596,-11.466c-0,-7.6 -3.867,-11.604 -11.596,-11.604Zm27.995,1.337c-2.8,-0 -4.804,-0.533 -5.199,-0.667c0.395,0.396 4.399,4.8 4.399,11.734c0,11.729 -9.733,20.662 -25.6,20.662c-4.804,1.733 -9.066,4.267 -9.066,6.4c-0,2.534 0.937,2.8 16.796,2.8c10.8,0 22.404,5.463 22.404,19.2c-0,14.396 -12.004,22.129 -29.996,22.129c-17.471,0 -30.133,-5.729 -30.133,-18.395c-0,-2.8 1.062,-6.401 1.333,-7.201l13.867,0c-0.267,0.53 -1.067,2.93 -1.067,4.8c-0,6.267 5.329,9.734 14.796,9.734c10.4,-0 16,-4.271 16,-10.538c-0,-7.329 -6.138,-9.329 -18.671,-9.329c-18.129,0 -22.125,-3.6 -22.125,-10.267c0,-6.662 5.6,-9.333 12.8,-11.595c-10.133,-2.938 -15.333,-9.467 -15.333,-19.067c-0,-13.733 10.8,-22.8 26.929,-22.8c9.604,-0 15.062,3.467 20.533,3.467c4.404,-0 8.529,-1.6 12.263,-4.667l6.804,9.2c-3.734,3.2 -7.2,4.4 -11.734,4.4Z" style="fill:#939598;fill-rule:nonzero;"/><path d="M1006.29,60.254l-0,291.667" style="fill:none;stroke:#58595b;stroke-width:8.33px;"/></g></svg>